<svg width="328" height="35" viewBox="0 0 328 35" fill="none" xmlns="http://www.w3.org/2000/svg">
<rect x="274.956" y="11.2705" width="53.0441" height="23.4877" rx="6.40574" fill="#E94A47"/>
<path d="M289.088 27.6179C290.689 27.6179 291.893 26.8748 292.675 25.9011L291.535 24.9275C290.958 25.6449 290.112 26.1702 289.088 26.1702C287.358 26.1702 286.115 24.889 286.115 23.0186C286.115 21.0968 287.332 19.8029 289.062 19.8029C290.023 19.8029 290.83 20.2129 291.509 21.0456L292.649 20.0847C291.701 18.9189 290.394 18.3424 289.062 18.3424C286.141 18.3424 284.501 20.4306 284.501 23.0186C284.501 26.0036 286.615 27.6179 289.088 27.6179ZM294.244 27.541H300.01V26.1574H295.795V18.4449H294.244V27.541ZM304.823 27.6435C307.091 27.6435 308.461 26.1574 308.461 23.8001V18.4449H306.911V23.6848C306.911 25.2478 306.04 26.183 304.823 26.183C303.516 26.183 302.747 25.1325 302.747 23.6848V18.4449H301.21V23.8001C301.21 26.2471 302.671 27.6435 304.823 27.6435ZM310.546 27.541H314.146C316.158 27.541 317.132 26.4905 317.132 25.0428C317.132 23.7873 316.388 22.9929 315.325 22.7367V22.7239C316.26 22.3524 316.67 21.5068 316.67 20.6613C316.67 19.1751 315.581 18.4449 313.711 18.4449H310.546V27.541ZM312.097 22.2114V19.8285L313.544 19.8157C314.608 19.8157 315.095 20.2897 315.095 21.0072C315.095 21.8655 314.467 22.2114 313.596 22.2114H312.097ZM312.097 26.1574V23.5438H313.711C314.915 23.5438 315.517 24.0691 315.517 24.8762C315.517 25.7346 314.915 26.1574 313.954 26.1574H312.097Z" fill="white"/>
<path d="M61.5104 0L64.817 1.31883L91.4517 30.5089C92.3315 31.476 91.6337 33 90.299 33H31.4478L61.5104 0Z" fill="#2044A0"/>
<path d="M29.7188 32.9707H41.1553L64.9385 6.88721C67.3957 4.22025 65.4238 0 61.7229 0C60.4791 0 59.3264 0.498224 58.5073 1.40675L29.7188 32.9707Z" fill="#C7DAFF"/>
<path d="M30.8712 0L34.1778 1.31883L63.0574 32.9707H0.808594L30.8712 0Z" fill="#3366FF"/>
<path d="M0.778798 32.9707H10.5166L34.2997 6.88721C36.7266 4.22025 34.7548 0 31.0538 0C29.81 0 28.6573 0.498224 27.8382 1.40675L0.202422 31.7398C-0.252613 32.2087 0.111413 32.9707 0.778798 32.9707Z" fill="#C7DAFF"/>
<path d="M128.778 13.6028L123.56 24.0655H120.162L114.884 13.5735L113.337 26.4101H108.908L111.547 5.71912H115.218L121.831 19.2884L128.383 5.71912H132.115L134.723 26.4101H130.325L128.778 13.6028Z" fill="#28293D"/>
<path d="M152.531 26.4101H138.819V5.71912H152.258V9.41184H143.157V14.3355H151.135V18.0868H143.157V22.7173H152.561V26.4101H152.531Z" fill="#28293D"/>
<path d="M164.907 9.41184V26.4101H160.6V9.41184H154.684V5.71912H170.823V9.41184H164.907Z" fill="#28293D"/>
<path d="M172.583 20.4021H176.89C176.921 21.8674 178.407 23.0983 180.409 23.0983C182.381 23.0983 183.625 22.0726 183.625 20.6072C183.625 19.4936 182.715 18.6436 180.925 18.1161L178.316 17.3834C173.614 16.1818 172.795 13.4269 172.795 11.5806C172.795 7.85856 176.101 5.33813 180.197 5.33813C184.262 5.33813 187.356 7.71202 187.356 11.6392H183.048C183.048 10.1738 181.987 9.03085 180.136 9.03085C178.437 9.03085 177.194 10.0859 177.194 11.4927C177.194 12.0202 177.345 13.046 179.59 13.6907L181.987 14.3648C185.232 15.244 188.054 16.8559 188.054 20.4021C188.054 24.4758 184.413 26.7618 180.379 26.7618C175.737 26.7618 172.583 24.0362 172.583 20.4021Z" fill="#28293D"/>
<path d="M205.588 26.4101H191.876V5.71912H205.315V9.41184H196.214V14.3355H204.192V18.0868H196.214V22.7173H205.618V26.4101H205.588Z" fill="#28293D"/>
<path d="M225.73 26.4101H221.848L214.082 13.4269V26.4101H209.774V5.71912H213.778L221.423 18.5557V5.71912H225.73V26.4101Z" fill="#28293D"/>
<path d="M234.497 21.4571L232.799 26.4101H228.188L236.166 5.71912H240.837L248.785 26.4101H244.235L242.506 21.4571H234.497ZM238.471 10.0566L235.771 17.823H241.202L238.471 10.0566Z" fill="#28293D"/>
<path d="M257.704 9.41184V26.4101H253.396V9.41184H247.481V5.71912H263.62V9.41184H257.704Z" fill="#28293D"/>
</svg>
